<svg xmlns="http://www.w3.org/2000/svg" viewBox="0 0 1200 300">
  <defs>
    <linearGradient id="bg" x1="0%" y1="0%" x2="100%" y2="100%">
      <stop offset="0%" style="stop-color:#6366f1"/>
      <stop offset="50%" style="stop-color:#8b5cf6"/>
      <stop offset="100%" style="stop-color:#7c3aed"/>
    </linearGradient>
    <linearGradient id="iconGrad" x1="0%" y1="0%" x2="100%" y2="100%">
      <stop offset="0%" style="stop-color:#a78bfa"/>
      <stop offset="100%" style="stop-color:#818cf8"/>
    </linearGradient>
  </defs>

  <!-- Background -->
  <rect width="1200" height="300" rx="16" fill="url(#bg)"/>

  <!-- Subtle dot grid -->
  <g opacity="0.05">
    <pattern id="dots" x="0" y="0" width="24" height="24" patternUnits="userSpaceOnUse">
      <circle cx="2" cy="2" r="1" fill="#fff"/>
    </pattern>
    <rect width="1200" height="300" fill="url(#dots)"/>
  </g>

  <!-- Mobile phone icon -->
  <g transform="translate(100, 150)">
    <!-- Phone body -->
    <rect x="-35" y="-65" width="70" height="130" rx="10" fill="none" stroke="url(#iconGrad)" stroke-width="3" opacity="0.9"/>
    <!-- Screen -->
    <rect x="-28" y="-52" width="56" height="95" rx="4" fill="#1e1b4b" opacity="0.6"/>
    <!-- Home button -->
    <circle cx="0" cy="55" r="5" fill="none" stroke="#a78bfa" stroke-width="1.5" opacity="0.6"/>
    <!-- Shield on screen -->
    <g transform="translate(0, -10)">
      <path d="M0,-25 L18,-17 L18,8 C18,20 9,27 0,32 C-9,27 -18,20 -18,8 L-18,-17 Z"
            fill="#a78bfa" opacity="0.3"/>
      <path d="M0,-18 L13,-12 L13,5 C13,14 7,19 0,23 C-7,19 -13,14 -13,5 L-13,-12 Z"
            fill="#1e1b4b" opacity="0.8"/>
      <!-- Checkmark -->
      <polyline points="-6,0 -2,5 7,-5" fill="none" stroke="#a78bfa" stroke-width="2.5" stroke-linecap="round" stroke-linejoin="round"/>
    </g>
    <!-- Signal waves -->
    <g transform="translate(42, -40)" stroke="#a78bfa" fill="none" stroke-width="1.5" opacity="0.5">
      <path d="M0,0 Q8,-8 0,-16"/>
      <path d="M5,3 Q16,-8 5,-19"/>
      <path d="M10,6 Q24,-8 10,-22"/>
    </g>
  </g>

  <!-- Title -->
  <text x="200" y="105" font-family="'Segoe UI',system-ui,sans-serif" font-size="46" font-weight="700" fill="#ffffff" letter-spacing="-1">
    MAST Scanner
  </text>

  <!-- Subtitle -->
  <text x="200" y="145" font-family="'Segoe UI',system-ui,sans-serif" font-size="19" fill="#c4b5fd" letter-spacing="0.5">
    Mobile Application Security Testing
  </text>

  <!-- Description -->
  <text x="200" y="178" font-family="'Segoe UI',system-ui,sans-serif" font-size="13.5" fill="#ddd6fe" opacity="0.85">
    Android APK &amp; iOS IPA | OWASP Mobile Top 10 | MASVS v2 | 39 Dependency CVEs | Zero deps
  </text>

  <!-- Tags row 1 -->
  <g transform="translate(200, 198)">
    <rect x="0" y="0" width="72" height="22" rx="4" fill="#fff" opacity="0.15"/>
    <text x="36" y="15" font-family="monospace" font-size="10.5" fill="#ede9fe" text-anchor="middle">Android</text>

    <rect x="80" y="0" width="46" height="22" rx="4" fill="#fff" opacity="0.15"/>
    <text x="103" y="15" font-family="monospace" font-size="10.5" fill="#ede9fe" text-anchor="middle">iOS</text>

    <rect x="134" y="0" width="72" height="22" rx="4" fill="#fff" opacity="0.15"/>
    <text x="170" y="15" font-family="monospace" font-size="10.5" fill="#ede9fe" text-anchor="middle">Manifest</text>

    <rect x="214" y="0" width="66" height="22" rx="4" fill="#fff" opacity="0.15"/>
    <text x="247" y="15" font-family="monospace" font-size="10.5" fill="#ede9fe" text-anchor="middle">Secrets</text>

    <rect x="288" y="0" width="62" height="22" rx="4" fill="#fff" opacity="0.15"/>
    <text x="319" y="15" font-family="monospace" font-size="10.5" fill="#ede9fe" text-anchor="middle">Crypto</text>

    <rect x="358" y="0" width="88" height="22" rx="4" fill="#fff" opacity="0.15"/>
    <text x="402" y="15" font-family="monospace" font-size="10.5" fill="#ede9fe" text-anchor="middle">Resilience</text>

    <rect x="454" y="0" width="66" height="22" rx="4" fill="#fff" opacity="0.15"/>
    <text x="487" y="15" font-family="monospace" font-size="10.5" fill="#ede9fe" text-anchor="middle">Privacy</text>

    <rect x="528" y="0" width="56" height="22" rx="4" fill="#fff" opacity="0.15"/>
    <text x="556" y="15" font-family="monospace" font-size="10.5" fill="#ede9fe" text-anchor="middle">Auth</text>
  </g>

  <!-- Tags row 2 -->
  <g transform="translate(200, 228)">
    <rect x="0" y="0" width="78" height="22" rx="4" fill="#fff" opacity="0.15"/>
    <text x="39" y="15" font-family="monospace" font-size="10.5" fill="#ede9fe" text-anchor="middle">Network</text>

    <rect x="86" y="0" width="78" height="22" rx="4" fill="#fff" opacity="0.15"/>
    <text x="125" y="15" font-family="monospace" font-size="10.5" fill="#ede9fe" text-anchor="middle">Storage</text>

    <rect x="172" y="0" width="80" height="22" rx="4" fill="#fff" opacity="0.15"/>
    <text x="212" y="15" font-family="monospace" font-size="10.5" fill="#ede9fe" text-anchor="middle">MASVS v2</text>

    <rect x="260" y="0" width="58" height="22" rx="4" fill="#fff" opacity="0.15"/>
    <text x="289" y="15" font-family="monospace" font-size="10.5" fill="#ede9fe" text-anchor="middle">SARIF</text>

    <rect x="326" y="0" width="56" height="22" rx="4" fill="#fff" opacity="0.15"/>
    <text x="354" y="15" font-family="monospace" font-size="10.5" fill="#ede9fe" text-anchor="middle">CI/CD</text>

    <rect x="390" y="0" width="74" height="22" rx="4" fill="#fff" opacity="0.15"/>
    <text x="427" y="15" font-family="monospace" font-size="10.5" fill="#ede9fe" text-anchor="middle">Dep CVEs</text>
  </g>

  <!-- Right panel: stats -->
  <g transform="translate(810, 65)">
    <rect x="0" y="0" width="100" height="64" rx="10" fill="#fff" opacity="0.12"/>
    <text x="50" y="30" font-family="'Segoe UI',sans-serif" font-size="22" font-weight="800" fill="#fff" text-anchor="middle">130+</text>
    <text x="50" y="50" font-family="'Segoe UI',sans-serif" font-size="9" fill="#ddd6fe" text-anchor="middle" letter-spacing="1">SAST RULES</text>

    <rect x="110" y="0" width="100" height="64" rx="10" fill="#fff" opacity="0.12"/>
    <text x="160" y="30" font-family="'Segoe UI',sans-serif" font-size="24" font-weight="800" fill="#fff" text-anchor="middle">39</text>
    <text x="160" y="50" font-family="'Segoe UI',sans-serif" font-size="9" fill="#ddd6fe" text-anchor="middle" letter-spacing="1">DEP CVEs</text>

    <rect x="220" y="0" width="100" height="64" rx="10" fill="#fff" opacity="0.12"/>
    <text x="270" y="30" font-family="'Segoe UI',sans-serif" font-size="24" font-weight="800" fill="#fff" text-anchor="middle">24</text>
    <text x="270" y="50" font-family="'Segoe UI',sans-serif" font-size="9" fill="#ddd6fe" text-anchor="middle" letter-spacing="1">MODULES</text>
  </g>

  <!-- Right panel: standards -->
  <g transform="translate(810, 145)">
    <rect x="0" y="0" width="320" height="34" rx="8" fill="#fff" opacity="0.08"/>
    <text x="12" y="14" font-family="'Segoe UI',sans-serif" font-size="8" fill="#ddd6fe" letter-spacing="1.5" opacity="0.7">STANDARDS</text>
    <text x="12" y="27" font-family="monospace" font-size="11" fill="#ede9fe">
      OWASP Mobile Top 10  |  MASVS v2 (22/24)  |  CWE
    </text>
  </g>

  <!-- Right panel: outputs -->
  <g transform="translate(810, 193)">
    <rect x="0" y="0" width="320" height="34" rx="8" fill="#fff" opacity="0.08"/>
    <text x="12" y="14" font-family="'Segoe UI',sans-serif" font-size="8" fill="#ddd6fe" letter-spacing="1.5" opacity="0.7">OUTPUT FORMATS</text>
    <text x="12" y="27" font-family="monospace" font-size="11" fill="#ede9fe">
      Console  JSON  HTML  SARIF  |  Zero Dependencies
    </text>
  </g>

  <!-- Version badge -->
  <g transform="translate(1060, 245)">
    <rect x="0" y="0" width="90" height="26" rx="13" fill="#fff" opacity="0.2"/>
    <text x="45" y="18" font-family="monospace" font-size="13" fill="#fff" text-anchor="middle" font-weight="600">v2.1.0</text>
  </g>
</svg>
